<svg xmlns="http://www.w3.org/2000/svg" viewBox="0 0 2220.075 1000"><title>Artboard 1 copy</title><path d="M1814.593,180.019V523.34a173.734,173.734,0,1,1-347.467,0V180.019h122.908V523.34a50.826,50.826,0,1,0,101.652,0V180.019Z" style="fill:#35495e"/><path d="M1937.493,180.019V523.34c0,163.83-132.8,296.641-296.633,296.641S1344.226,687.17,1344.226,523.34V180.019h122.9V523.34a173.734,173.734,0,1,0,347.467,0V180.019Z" style="fill:#41b883"/><path d="M872.827,181.821h147.561l-368.9,636.358-368.9-636.358H564.792l86.693,147.561,84.848-147.561Z" style="fill:#41b883"/><path d="M282.581,181.821l368.9,636.358,368.9-636.358H872.827L651.485,563.636,428.3,181.821Z" style="fill:#41b883"/><path d="M428.3,181.821,651.485,565.48,872.827,181.821H736.333L651.485,329.382,564.792,181.821Z" style="fill:#35495e"/><g style="opacity:0.5"><path d="M1157.007,425.441v65.87h63.347v16.818h-63.347v66.43h-17.939v-66.43H1075.72V491.311h63.348v-65.87Z" style="fill:#888"/></g></svg>